# xmcd
#
# Track frame offsets:
#	150
#	19101
#	41147
#	65595
#	83736
#	101679
#	117731
#	141910
#	161658
#	180896
#	198708
#	220414
#	242365
#
# Disc length: 3503 seconds
#
# Revision: 3
# Processed by: cddbd v1.5.2PL0 Copyright (c) Steve Scherf et al.
# Submitted via: dBpowerAMP V4.0
#
DISCID=ba0dad0d
DTITLE=2018 - ALBUM STORY - 1999 - SANG POUR SANG
DYEAR=1999
DGENRE=Rock and Roll
TTITLE0=01: ang pour sang
TTITLE1=02: Le poids de mes maux
TTITLE2=03: Quelques cris
TTITLE3=04: Un jour viendra
TTITLE4=05: Notre histoire
TTITLE5=06: Les larmes de gloire
TTITLE6=07: Si tu m'aimais
TTITLE7=08: Remise de peine
TTITLE8=09: Partie de cartes
TTITLE9=10: Pardon
TTITLE10=11: Ex
TTITLE11=12: Je t'aime comme je respire
TTITLE12=12: Vivre pour le meilleur
EXTD=2018 - ALBUM STORY\n1999 - SANG POUR SANG
EXTT0=
EXTT1=
EXTT2=
EXTT3=
EXTT4=
EXTT5=
EXTT6=
EXTT7=
EXTT8=
EXTT9=
EXTT10=
EXTT11=
EXTT12=
PLAYORDER=
